# xmcd CD database file
#
# Track frame offsets:
#	150
#	24722
#	44452
#	62280
#	82095
#	101795
#	122087
#	137175
#	153562
#	169935
#
# Disc length: 2461 seconds
#
# Revision: 1
# Processed by: cddbd v1.5PL3 Copyright (c) Steve Scherf et al.
# Submitted via: CDex 1.51
#
DISCID=89099b0a
DTITLE=横山知枝 - Bloomin'
DYEAR=1992
DGENRE=Pop
TTITLE0=Happy Birthday
TTITLE1=X-BOYに気をつけて
TTITLE2=FOR YOU
TTITLE3=FOR ME
TTITLE4=5mmのファースト・キス
TTITLE5=元気出せよな
TTITLE6=素直になりたい
TTITLE7=ステキな宝もの
TTITLE8=さよならだけど さよならじゃない
TTITLE9=決心
EXTD=YEAR: 1992
EXTT0=
EXTT1=
EXTT2=
EXTT3=
EXTT4=
EXTT5=
EXTT6=
EXTT7=
EXTT8=
EXTT9=
PLAYORDER=
